<svg width="14" height="13" viewBox="0 0 14 13" fill="none" xmlns="http://www.w3.org/2000/svg">
<path fill-rule="evenodd" clip-rule="evenodd" d="M12.1737 0.167315C12.4495 0.152946 12.6847 0.365069 12.699 0.641106L12.6992 0.644815L12.6996 0.65334L12.701 0.683931C12.7021 0.710023 12.7034 0.747202 12.7047 0.792957C12.7073 0.884213 12.7094 1.01086 12.7079 1.15251C12.7051 1.42032 12.6893 1.79606 12.6176 2.0784C12.5489 2.34877 12.4597 2.61496 12.3893 2.81015C12.3764 2.84576 12.3641 2.87925 12.3526 2.91025C12.6772 3.10982 12.9119 3.37211 13.0733 3.6042C13.1951 3.77933 13.2801 3.94388 13.335 4.06549C13.3626 4.12659 13.383 4.17768 13.3969 4.21493C13.4039 4.23358 13.4093 4.24883 13.4132 4.26021L13.4179 4.27435L13.4183 4.27555L13.4189 4.27727C13.5976 4.81449 13.6733 5.277 13.6634 5.748C13.6536 6.2135 13.5604 6.66815 13.4261 7.18219C13.0874 8.47913 12.5775 9.10427 11.6897 10.0796C11.079 10.7504 10.1157 11.5632 8.86061 12.1283C7.58478 12.7027 6.57167 12.8474 5.3512 12.8322C4.76582 12.825 4.32129 12.8106 3.89238 12.7413C3.4567 12.671 3.05146 12.5468 2.53237 12.335C2.24114 12.2161 1.93659 12.0271 1.69907 11.7701C1.45959 11.511 1.27303 11.1642 1.27303 10.7469C1.27303 10.4555 1.39948 10.2323 1.56933 10.0623C1.24841 9.80129 0.975009 9.47009 0.775006 9.06971C0.0753802 7.66916 0.345016 6.6395 0.641543 5.50716C0.641543 5.50716 0.79733 4.70983 1.14771 4.8793C1.65517 5.12475 2.16708 5.14464 2.16708 5.14464L2.17552 5.14678C2.20004 5.05915 2.22885 4.96106 2.26175 4.85694C2.37865 4.48701 2.56016 3.99782 2.80424 3.64217C3.04681 3.28874 3.45015 2.92378 3.76471 2.66333C3.92702 2.52894 4.07549 2.41448 4.18344 2.33355C4.23751 2.29301 4.28168 2.26069 4.31263 2.2383L4.34881 2.2123L4.35874 2.20525L4.36153 2.20327L4.36275 2.20241C4.5434 2.07547 4.88104 2.21004 4.81437 2.5437C4.74771 2.87736 4.74987 3.32739 4.74987 3.32739C4.75805 3.71743 4.97954 4.45482 6.10898 5.58536C6.53045 6.00724 6.79121 6.51869 6.87958 7.07893C7.06993 6.77877 7.24609 6.46238 7.40077 6.16136C7.57671 5.81899 7.71923 5.50784 7.81769 5.28243C7.86686 5.16986 7.90488 5.07904 7.93042 5.01682C7.94319 4.98572 7.95283 4.9618 7.95918 4.94592L7.96526 4.93061L7.96673 4.92634C7.96995 4.91707 7.97451 4.90415 7.98041 4.88791C7.9922 4.85544 8.0094 4.80959 8.032 4.75303C8.07712 4.64011 8.14427 4.48333 8.23369 4.30434C8.41016 3.95105 8.68384 3.48982 9.06174 3.11155L9.06263 3.11066L9.0636 3.1097L9.06573 3.10761L9.0708 3.10271C9.07454 3.09914 9.07901 3.09496 9.08422 3.09023C9.09463 3.08077 9.108 3.0691 9.12442 3.05565C9.15726 3.02876 9.20229 2.99477 9.26022 2.95725C9.37628 2.88208 9.54329 2.79325 9.76627 2.71885C10.1509 2.59052 10.6885 2.50961 11.3999 2.60225C11.4145 2.56363 11.431 2.51918 11.4487 2.47021C11.5134 2.29091 11.5908 2.05837 11.6484 1.83174C11.6877 1.67713 11.7052 1.40889 11.708 1.14198C11.7093 1.01625 11.7074 0.902842 11.7051 0.820881C11.704 0.780027 11.7027 0.747308 11.7018 0.725154L11.7007 0.700234L11.7005 0.694341L11.7004 0.693141C11.6861 0.417133 11.898 0.181683 12.1737 0.167315ZM6.20847 7.96957C6.16284 8.01803 6.11693 8.06415 6.0708 8.10761C5.92117 8.24857 5.78406 8.36681 5.65561 8.46703C5.5619 8.12281 5.39361 7.81254 5.16964 7.58174C4.53054 6.92315 4.432 6.52074 4.42842 6.34489V5.71083C4.42842 5.4186 4.10251 5.41291 3.92367 5.5423L3.92276 5.54295L3.92091 5.5443L3.91467 5.54887L3.89266 5.56515C3.874 5.57905 3.84759 5.59894 3.81537 5.62381C3.75111 5.6734 3.66274 5.74355 3.56597 5.82602C3.38217 5.98269 3.13234 6.21358 2.97767 6.44559C2.81485 6.68982 2.7032 7.05341 2.63589 7.30812C2.63058 7.32823 2.62545 7.34806 2.62049 7.36755C2.38208 7.34836 2.15144 7.28552 2.01437 7.21489L2.0008 7.20789C1.89392 7.15263 1.81155 7.11004 1.71437 7.1692C1.67524 7.19303 1.65123 7.29473 1.6257 7.40287L1.61444 7.45014C1.51491 7.8604 1.46337 8.23895 1.47935 8.61233C0.986893 7.57239 1.15582 6.85303 1.4306 5.78832C1.62705 5.86083 1.80952 5.91429 1.96163 5.95303C2.09685 5.98747 2.21021 6.0108 2.29095 6.0257C2.33137 6.03315 2.36376 6.03852 2.38678 6.04212L2.41419 6.04624L2.42235 6.04739L2.42499 6.04775L2.4265 6.04795C2.64104 6.07623 2.84168 5.93527 2.88806 5.72371L2.88844 5.72199L2.89028 5.71381L2.89822 5.67961C2.90537 5.64927 2.91621 5.60454 2.93054 5.54868C2.95926 5.43671 3.0017 5.28136 3.05632 5.10849C3.16921 4.75123 3.32103 4.36236 3.49114 4.11449C3.59648 3.96101 3.75919 3.78784 3.94064 3.61778C4.04083 4.2774 4.46707 5.12148 5.51975 6.17518C5.88769 6.54348 6.20167 7.35331 6.20847 7.96957ZM4.89581 8.91548C4.86366 8.9284 4.83152 8.94066 4.7993 8.95236C4.53266 9.04922 4.27085 9.10764 3.93177 9.1833C3.737 9.22676 3.51664 9.27594 3.25531 9.34133C3.00041 9.40512 2.69586 9.48207 2.40864 9.58445C2.18825 9.06953 2.18779 8.61402 2.24853 8.12455C2.32441 8.14961 2.39694 8.1717 2.46229 8.19067C2.56956 8.22179 2.66381 8.24624 2.73148 8.26298C2.7654 8.27137 2.79284 8.27787 2.81215 8.28235L2.83485 8.28754L2.84126 8.28898L2.84317 8.2894L2.84402 8.28959C2.95471 8.31385 3.07067 8.29198 3.16487 8.22895C3.25903 8.16594 3.32351 8.06729 3.34346 7.9557L3.34369 7.95443L3.34475 7.94868L3.34938 7.92426C3.34938 7.92426 3.37341 7.60612 3.44152 7.34836C3.4949 7.14636 3.55792 7.06219 3.61993 6.97935C3.63705 6.95648 3.6541 6.93371 3.67084 6.9086C3.67804 6.8978 3.68585 6.88672 3.69423 6.8754C3.82498 7.24541 4.09605 7.67259 4.57189 8.16293C4.73875 8.33489 4.86032 8.61198 4.89581 8.91548ZM9.43692 3.94339L9.87347 4.59885L10.9219 4.33648C11.0928 4.29373 11.272 4.36309 11.3697 4.50975L11.8735 5.26616L12.7654 5.04296C12.7331 4.88612 12.6879 4.72 12.6277 4.53933L12.6255 4.5325L12.6166 4.50765C12.6084 4.48577 12.5949 4.45179 12.5756 4.40909C12.5368 4.32312 12.4759 4.2052 12.3894 4.0808C12.2165 3.83223 11.9599 3.58314 11.5932 3.47885C10.8337 3.32914 10.3289 3.41038 10.0298 3.51019C9.87777 3.56091 9.77395 3.61805 9.71293 3.65758L9.6461 3.70629C9.6461 3.70629 9.50246 3.8605 9.43692 3.94339ZM12.823 5.88837L11.7907 6.14668C11.6199 6.18943 11.4406 6.12007 11.343 5.97341L10.8392 5.217L9.79072 5.47937C9.61989 5.52212 9.44065 5.45276 9.34297 5.3061L8.95572 4.72466C8.89005 4.85954 8.83999 4.97708 8.80573 5.06282C8.78667 5.11053 8.77261 5.14809 8.76357 5.17297C8.75905 5.1854 8.7558 5.19464 8.75381 5.20037L8.73294 5.25563C8.72566 5.27386 8.71502 5.30025 8.7012 5.33391C8.67356 5.40123 8.63313 5.49778 8.58124 5.61658C8.47758 5.8539 8.32757 6.18143 8.14182 6.54291C7.7767 7.25343 7.2501 8.14208 6.64193 8.71503C6.05675 9.26632 5.5928 9.5515 5.08357 9.73647C4.7686 9.85088 4.4223 9.92865 4.04287 10.0139C3.85599 10.0558 3.66096 10.0996 3.45742 10.1506C3.08107 10.2447 2.70681 10.3429 2.42696 10.4772C2.12031 10.6243 2.10636 10.7256 2.10636 10.7469C2.10636 10.9015 2.17344 11.0551 2.31077 11.2036C2.45006 11.3543 2.64552 11.4803 2.84702 11.5626C3.32794 11.7589 3.67025 11.8606 4.025 11.9178C4.38653 11.9762 4.77533 11.9909 5.36153 11.9982C6.4842 12.0121 7.37322 11.8833 8.51878 11.3675C9.63811 10.8636 10.4289 10.2268 11.079 9.51201C11.8597 8.65369 12.3374 8.05283 12.6199 6.9712C12.7307 6.5472 12.8005 6.20775 12.823 5.88837Z" fill="#00A296"/>
</svg>
