<svg width="14" height="15" viewBox="0 0 14 15" fill="none" xmlns="http://www.w3.org/2000/svg">
<path fill-rule="evenodd" clip-rule="evenodd" d="M13.1896 0.939915C13.098 0.859097 12.9762 0.821498 12.855 0.836677L12.7769 0.846562C12.7267 0.852937 12.6542 0.862211 12.5645 0.873833C12.3852 0.89707 12.1369 0.929717 11.8611 0.967356C11.3122 1.04227 10.6455 1.13818 10.1987 1.2194C9.1345 1.41289 8.13955 1.84649 7.37594 2.69459C6.76589 3.37213 6.61022 4.2919 6.69563 5.10063C6.77156 5.81955 7.04671 6.53439 7.46278 6.99716C7.2338 7.35794 7.02071 7.73427 6.84528 8.11213C6.39045 9.09175 5.94442 10.4966 5.71138 11.6287C5.67057 11.827 5.63305 12.0181 5.59892 12.1986C5.44099 11.8291 5.273 11.4515 5.13042 11.1664L5.12919 11.1639C5.46672 10.8049 5.68193 10.2457 5.7402 9.69393C5.80443 9.08576 5.68905 8.38052 5.21674 7.85593C4.65178 7.22848 3.97278 7.01657 3.23953 6.78774L3.15148 6.76023C2.74879 6.63416 2.23536 6.56203 1.84224 6.52084C1.64166 6.49982 1.4646 6.4861 1.33751 6.47762C1.27389 6.47338 1.22256 6.47044 1.18683 6.46854L1.14526 6.46644L1.13398 6.46592L1.12991 6.46574C0.898461 6.45604 0.70124 6.63316 0.686692 6.86436L0.686413 6.86891L0.68575 6.88019L0.68349 6.92174C0.681642 6.95748 0.679207 7.00883 0.676777 7.07256C0.671923 7.19983 0.667055 7.37735 0.666993 7.57904C0.666872 7.97432 0.684938 8.49244 0.76822 8.90613L0.786367 8.99652C0.937309 9.74972 1.07708 10.4471 1.64205 11.0746C2.11436 11.5992 2.80372 11.7877 3.41524 11.7873C3.75167 11.7872 4.09686 11.7299 4.40396 11.6184C4.59073 12.0009 4.82357 12.5446 5.01682 13.0111C5.11883 13.2574 5.20852 13.4791 5.2727 13.6391C5.30478 13.7191 5.33046 13.7837 5.34808 13.8282L5.36826 13.8792L5.37503 13.8964C5.44579 14.0766 5.62933 14.1865 5.82159 14.1637C6.01384 14.141 6.16649 13.9913 6.19311 13.7995L6.1934 13.7974L6.19442 13.7903L6.2155 13.6465C6.23054 13.5466 6.25305 13.4011 6.28279 13.2205C6.3423 12.8592 6.43053 12.3584 6.5454 11.8003C6.77741 10.6732 7.20785 9.35326 7.61762 8.47071C7.76837 8.14598 7.95222 7.81847 8.15249 7.49958C8.61366 7.72065 9.18021 7.83863 9.73682 7.8389C10.55 7.83931 11.4485 7.58835 12.0585 6.91082C12.8224 6.06251 13.1172 5.14692 13.2299 3.95747C13.2823 3.40437 13.308 2.7277 13.3208 2.19515C13.3272 1.92763 13.3304 1.69409 13.332 1.52733C13.3328 1.44393 13.3333 1.37715 13.3335 1.3311L13.3336 1.27805L13.3337 1.26049V1.25912C13.3337 1.13699 13.2812 1.02073 13.1896 0.939915ZM9.73722 6.98741C9.32446 6.9872 8.94007 6.90668 8.63723 6.78318C8.84237 6.49922 9.05079 6.23108 9.24819 5.98865C9.52868 5.64416 9.78279 5.35658 9.96643 5.15548C10.0582 5.05501 10.1322 4.97632 10.1829 4.92313C10.2082 4.89653 10.2277 4.87633 10.2406 4.86297L10.2551 4.84814L10.2585 4.84469L10.2593 4.84389C10.4244 4.67655 10.4226 4.40703 10.2553 4.24186C10.088 4.07668 9.81832 4.07852 9.65313 4.24585L9.65126 4.24775L9.64662 4.25248L9.62959 4.26996C9.61488 4.28512 9.59356 4.30722 9.56634 4.33579C9.51191 4.39293 9.43382 4.476 9.33767 4.58129C9.14551 4.79171 8.88053 5.09162 8.5879 5.45101C8.39005 5.69399 8.1776 5.96653 7.96551 6.25895C7.76186 5.95613 7.59518 5.51079 7.54242 5.0112C7.47295 4.35344 7.61183 3.70515 8.00872 3.26435C8.6125 2.59378 9.41557 2.22725 10.3511 2.05716C10.7772 1.97969 11.4269 1.88602 11.9763 1.81103C12.1598 1.78598 12.3312 1.76314 12.4778 1.74386C12.476 1.87072 12.4733 2.0167 12.4695 2.17471C12.4569 2.70239 12.4317 3.35482 12.3822 3.87718C12.2805 4.95051 12.0294 5.67069 11.4257 6.34106C11.0289 6.78186 10.3986 6.98774 9.73722 6.98741ZM4.89342 9.60449C4.86161 9.90574 4.77073 10.1724 4.66046 10.3683C4.52795 10.165 4.39118 9.96639 4.26641 9.78993L3.76812 9.11036L3.73584 9.06813L3.72723 9.05693L3.724 9.05274C3.58014 8.86675 3.31274 8.83259 3.12675 8.97645C2.94076 9.12031 2.9066 9.3877 3.05046 9.57369L3.05278 9.5767L3.06045 9.58666L3.09068 9.62622C3.1171 9.66091 3.1555 9.71164 3.20291 9.7751C3.29782 9.90215 3.42844 10.0797 3.57116 10.2815C3.70152 10.4659 3.8388 10.6661 3.96714 10.864C3.80311 10.9084 3.61513 10.9357 3.41481 10.9358C2.95511 10.9361 2.53399 10.7927 2.27483 10.5048C1.86899 10.0541 1.77023 9.56888 1.60296 8.73807C1.5373 8.41192 1.51837 7.96458 1.51849 7.5793C1.51851 7.4964 1.51941 7.41777 1.52079 7.34555C1.59276 7.35173 1.67105 7.35906 1.7535 7.36769C2.13668 7.40785 2.57959 7.47344 2.89709 7.57283C3.70587 7.82603 4.17812 7.97497 4.58395 8.42569C4.84311 8.71352 4.9417 9.14732 4.89342 9.60449Z" fill="#00A296"/>
</svg>
